<svg xmlns="http://www.w3.org/2000/svg" width="923" height="923" viewBox="0 0 922.65 922.65" fill="none">
  <title>Improved bird logo SVG</title>
  <desc>Smooth vectorized bird emblem with transparent background.</desc>
  <g fill="#15d4bc" fill-rule="evenodd" stroke="none">
    <path d="M 813.65 583.23 C 811.58 582.54 803.34 586.58 798.02 588.10 C 792.72 589.61 787.29 591.04 781.81 592.33 C 776.34 593.62 770.77 594.76 765.15 595.85 C 759.55 596.93 753.81 597.83 748.15 598.84 C 742.50 599.85 736.80 600.81 731.20 601.91 C 725.59 603.01 719.99 604.10 714.54 605.44 C 709.10 606.77 703.68 608.16 698.51 609.91 C 693.33 611.65 688.25 613.65 683.49 615.92 C 678.72 618.20 673.90 620.75 669.92 623.56 C 665.94 626.37 662.45 629.57 659.55 632.79 C 656.66 636.01 654.23 639.40 652.53 642.90 C 650.83 646.41 647.32 652.74 649.37 653.83 C 651.43 654.91 659.51 650.76 664.83 649.40 C 670.16 648.03 675.68 646.69 681.33 645.64 C 686.96 644.59 692.87 643.97 698.62 643.09 C 704.37 642.22 710.18 641.43 715.82 640.39 C 721.46 639.36 727.05 638.23 732.51 636.91 C 737.95 635.59 743.35 634.18 748.53 632.44 C 753.73 630.72 758.72 628.69 763.64 626.54 C 768.55 624.38 773.49 622.09 778.04 619.51 C 782.58 616.92 786.91 613.96 790.87 611.02 C 794.84 608.10 798.55 605.08 801.82 601.94 C 805.10 598.82 808.54 595.35 810.51 592.23 C 812.48 589.11 815.73 583.92 813.65 583.23 Z" />
    <path d="M 808.09 503.05 C 805.64 502.64 799.57 508.73 794.97 511.39 C 790.37 514.05 785.41 516.66 780.47 519.04 C 775.54 521.43 770.44 523.60 765.34 525.73 C 760.24 527.85 755.04 529.84 749.83 531.80 C 744.62 533.77 739.30 535.59 734.05 537.51 C 728.79 539.41 723.54 541.30 718.32 543.26 C 713.11 545.22 707.84 547.14 702.74 549.27 C 697.64 551.40 692.61 553.61 687.73 556.06 C 682.83 558.51 677.78 561.12 673.35 563.96 C 668.92 566.81 664.67 569.93 661.16 573.10 C 657.64 576.28 654.77 579.60 652.26 583.04 C 649.75 586.47 647.59 590.00 646.09 593.73 C 644.59 597.46 643.07 601.78 643.30 605.41 C 643.51 609.04 644.39 615.20 647.42 615.52 C 650.44 615.83 656.54 609.76 661.42 607.30 C 666.28 604.84 671.42 602.74 676.63 600.77 C 681.84 598.80 687.23 597.14 692.65 595.48 C 698.07 593.84 703.68 592.47 709.12 590.85 C 714.58 589.24 719.99 587.58 725.32 585.79 C 730.64 583.98 735.96 582.22 741.07 580.08 C 746.18 577.96 751.22 575.54 756.00 573.01 C 760.76 570.49 765.37 567.78 769.69 564.92 C 773.99 562.05 778.18 558.93 781.85 555.79 C 785.52 552.65 788.73 549.40 791.70 546.07 C 794.67 542.75 797.35 539.35 799.66 535.86 C 801.96 532.36 803.89 528.78 805.57 525.11 C 807.24 521.45 809.25 517.56 809.69 513.88 C 810.10 510.20 810.55 503.46 808.09 503.05 Z" />
    <path d="M 746.24 406.95 C 744.06 406.89 741.55 412.36 739.15 415.52 C 736.76 418.69 734.50 422.57 731.83 425.95 C 729.17 429.34 726.23 432.57 723.15 435.81 C 720.09 439.07 716.86 442.29 713.43 445.46 C 710.00 448.62 706.36 451.75 702.59 454.84 C 698.81 457.92 694.81 460.96 690.79 463.98 C 686.77 467.01 682.60 469.99 678.45 472.98 C 674.32 475.97 670.08 478.94 665.96 481.93 C 661.85 484.93 657.69 487.91 653.72 490.93 C 649.75 493.95 645.81 496.98 642.14 500.07 C 638.47 503.17 634.90 506.28 631.70 509.50 C 628.50 512.72 625.51 515.99 622.97 519.40 C 620.43 522.81 618.17 526.30 616.49 529.96 C 614.79 533.61 613.49 537.46 612.79 541.35 C 612.09 545.23 611.90 549.38 612.26 553.27 C 612.63 557.17 613.44 560.97 614.98 564.71 C 616.51 568.44 618.93 573.97 621.52 575.69 C 624.11 577.41 627.50 576.79 630.55 575.02 C 633.61 573.24 636.36 568.24 639.82 565.01 C 643.28 561.78 647.12 558.58 651.32 555.64 C 655.50 552.69 660.23 550.01 664.94 547.33 C 669.64 544.65 674.73 542.18 679.55 539.55 C 684.37 536.93 689.25 534.32 693.88 531.57 C 698.51 528.84 703.04 526.01 707.33 523.12 C 711.61 520.22 715.74 517.23 719.59 514.17 C 723.45 511.11 727.09 507.98 730.43 504.76 C 733.76 501.55 736.85 498.25 739.59 494.89 C 742.33 491.52 744.75 488.08 746.86 484.56 C 748.95 481.04 750.73 477.45 752.20 473.78 C 753.69 470.11 754.85 466.37 755.74 462.54 C 756.63 458.73 757.21 454.81 757.52 450.86 C 757.83 446.90 757.89 442.77 757.62 438.83 C 757.33 434.90 756.78 431.09 755.87 427.28 C 754.96 423.47 753.77 419.34 752.16 415.95 C 750.56 412.56 748.41 407.02 746.24 406.95 Z" />
    <path d="M 261.67 340.15 C 259.33 340.65 260.05 349.33 260.09 354.14 C 260.13 358.96 261.11 364.10 261.94 369.04 C 262.76 373.97 263.77 378.92 265.00 383.77 C 266.23 388.61 267.67 393.38 269.32 398.11 C 270.95 402.85 272.79 407.53 274.82 412.17 C 276.84 416.81 279.07 421.40 281.48 425.94 C 283.90 430.48 286.51 434.97 289.31 439.42 C 292.12 443.85 295.11 448.24 298.29 452.57 C 301.48 456.91 304.87 461.19 308.43 465.43 C 311.99 469.66 315.75 473.84 319.69 477.97 C 323.62 482.10 327.75 486.18 332.06 490.23 C 336.36 494.27 340.84 498.25 345.52 502.21 C 350.17 506.16 355.05 510.05 360.04 513.93 C 365.02 517.79 370.27 521.61 375.42 525.44 C 380.57 529.27 385.89 533.07 390.96 536.92 C 396.02 540.77 401.11 544.62 405.82 548.56 C 410.54 552.49 415.15 556.45 419.24 560.53 C 423.33 564.61 427.14 568.74 430.39 573.04 C 433.64 577.33 436.44 581.71 438.73 586.28 C 441.03 590.85 442.86 595.61 444.15 600.50 C 445.42 605.38 446.27 610.57 446.40 615.58 C 446.55 620.59 446.10 625.69 444.98 630.53 C 443.86 635.38 441.97 640.06 439.68 644.63 C 437.38 649.20 434.43 653.61 431.20 657.94 C 427.97 662.29 424.22 666.49 420.33 670.65 C 416.44 674.82 412.14 678.87 407.89 682.92 C 403.62 686.98 398.96 690.91 394.76 694.98 C 390.58 699.04 386.23 703.05 382.73 707.30 C 379.25 711.56 376.12 715.95 373.81 720.50 C 371.50 725.07 369.88 729.86 368.87 734.69 C 367.86 739.52 367.34 744.62 367.72 749.49 C 368.11 754.37 369.11 759.42 371.19 763.95 C 373.27 768.47 378.78 772.10 380.24 776.66 C 381.70 781.24 379.91 786.30 379.94 791.35 C 379.95 796.40 379.76 801.93 380.33 806.95 C 380.90 811.97 381.76 816.73 383.34 821.47 C 384.92 826.22 386.99 830.92 389.81 835.41 C 392.62 839.89 396.13 844.47 400.22 848.39 C 404.32 852.31 411.79 859.02 414.38 858.93 C 416.98 858.85 415.50 852.18 415.81 847.88 C 416.11 843.57 415.50 838.00 416.20 833.11 C 416.90 828.23 418.28 823.33 419.99 818.57 C 421.70 813.82 423.88 809.06 426.49 804.57 C 429.09 800.08 432.02 795.84 435.61 791.65 C 439.19 787.46 443.23 783.38 447.95 779.42 C 452.69 775.46 458.11 771.25 463.98 767.90 C 469.85 764.55 476.61 761.00 483.16 759.31 C 489.71 757.63 498.43 755.74 503.25 757.82 C 508.06 759.89 508.92 767.35 512.06 771.76 C 515.21 776.16 518.09 780.17 522.11 784.26 C 526.13 788.35 531.05 792.50 536.22 796.28 C 541.37 800.07 547.07 803.77 553.09 806.98 C 559.13 810.19 566.94 813.87 572.40 815.53 C 577.85 817.20 585.91 818.82 585.80 816.96 C 585.71 815.11 576.08 808.51 571.79 804.40 C 567.48 800.28 563.51 796.47 559.99 792.23 C 556.47 788.00 553.43 783.45 550.63 779.01 C 547.84 774.57 545.92 770.07 543.22 765.60 C 540.54 761.14 538.31 756.31 534.47 752.22 C 530.64 748.11 526.54 743.35 520.21 741.00 C 513.87 738.64 499.52 740.33 496.47 738.09 C 493.42 735.84 498.31 731.20 501.91 727.52 C 505.52 723.83 513.62 719.98 518.11 715.96 C 522.59 711.94 525.70 707.77 528.82 703.42 C 531.92 699.07 534.46 694.43 536.77 689.85 C 539.08 685.28 541.08 680.66 542.67 675.95 C 544.25 671.23 545.57 666.56 546.26 661.53 C 546.95 656.49 545.27 649.87 546.80 645.73 C 548.31 641.59 552.00 636.08 555.36 636.68 C 558.71 637.30 563.96 644.93 566.93 649.38 C 569.90 653.85 571.92 658.66 573.19 663.43 C 574.46 668.22 574.81 673.12 574.56 678.09 C 574.31 683.04 573.23 688.38 571.71 693.18 C 570.17 697.97 568.18 702.35 565.38 706.84 C 562.57 711.33 555.89 716.59 554.87 720.13 C 553.87 723.66 554.66 727.29 559.34 728.06 C 564.01 728.82 575.31 725.89 582.91 724.72 C 590.51 723.55 597.70 722.34 604.94 721.01 C 612.19 719.68 619.30 718.29 626.42 716.75 C 633.55 715.20 640.67 713.52 647.70 711.72 C 654.73 709.93 661.73 708.01 668.64 705.97 C 675.55 703.93 682.41 701.77 689.14 699.50 C 695.88 697.22 702.56 694.86 709.08 692.31 C 715.59 689.76 722.00 687.11 728.21 684.20 C 734.44 681.30 740.26 678.28 746.36 674.90 C 752.45 671.52 760.63 667.38 764.80 663.90 C 768.97 660.43 773.98 655.33 771.36 654.08 C 768.73 652.83 756.74 655.97 749.02 656.42 C 741.31 656.87 733.07 656.63 725.08 656.79 C 717.09 656.94 708.83 656.63 701.04 657.35 C 693.25 658.06 685.34 659.12 678.37 661.05 C 671.41 662.99 665.10 665.85 659.24 668.95 C 653.37 672.05 648.29 675.94 643.16 679.67 C 638.03 683.39 634.40 687.87 628.45 691.31 C 622.49 694.76 610.97 700.37 607.43 700.32 C 603.88 700.26 605.85 694.73 607.21 690.98 C 608.59 687.24 613.10 682.34 615.65 677.85 C 618.20 673.37 620.83 668.87 622.54 664.09 C 624.24 659.31 625.33 654.20 625.87 649.19 C 626.41 644.17 626.32 638.98 625.79 634.00 C 625.26 629.02 624.18 624.09 622.71 619.28 C 621.24 614.48 619.27 609.77 616.96 605.18 C 614.64 600.60 611.87 596.11 608.81 591.76 C 605.73 587.40 602.27 583.19 598.53 579.05 C 594.81 574.92 590.74 571.00 586.41 566.94 C 582.09 562.88 577.39 558.49 572.56 554.67 C 567.74 550.84 560.60 544.01 557.47 543.99 C 554.33 543.97 554.54 550.30 553.81 554.55 C 553.06 558.80 553.75 564.58 553.04 569.47 C 552.31 574.37 551.09 579.17 549.47 583.93 C 547.84 588.68 545.72 593.43 543.25 598.00 C 540.78 602.57 537.82 607.08 534.62 611.35 C 531.42 615.61 528.01 619.42 524.07 623.59 C 520.11 627.77 515.79 632.75 510.92 636.38 C 506.03 640.02 497.55 645.69 494.77 645.39 C 492.00 645.09 493.02 638.65 494.29 634.59 C 495.54 630.55 500.01 625.60 502.33 621.07 C 504.65 616.54 506.46 612.13 508.20 607.43 C 509.96 602.74 511.57 597.82 512.83 592.89 C 514.10 587.96 515.16 582.88 515.82 577.85 C 516.47 572.82 516.84 567.71 516.78 562.70 C 516.71 557.69 516.26 552.70 515.39 547.82 C 514.52 542.92 513.25 538.08 511.55 533.34 C 509.86 528.61 507.76 523.93 505.23 519.38 C 502.70 514.84 499.74 510.38 496.38 506.06 C 493.00 501.73 489.16 497.53 485.00 493.43 C 480.84 489.34 476.25 485.37 471.44 481.47 C 466.62 477.58 461.45 473.80 456.13 470.08 C 450.82 466.36 445.20 462.74 439.53 459.17 C 433.85 455.60 427.95 452.11 422.05 448.65 C 416.16 445.19 410.14 441.80 404.13 438.42 C 398.14 435.04 392.06 431.70 386.04 428.34 C 380.02 424.98 373.97 421.65 368.02 418.26 C 362.07 414.88 356.11 411.49 350.31 408.03 C 344.49 404.57 338.72 401.07 333.12 397.49 C 327.52 393.90 322.01 390.24 316.71 386.50 C 311.39 382.76 306.20 378.94 301.24 375.05 C 296.27 371.18 291.41 367.18 286.88 363.21 C 282.36 359.24 278.30 355.05 274.09 351.20 C 269.89 347.36 264.00 339.66 261.67 340.15 Z M 431.40 715.39 C 433.81 714.77 437.80 716.43 439.58 718.09 C 441.35 719.75 441.49 722.87 442.07 725.36 C 442.65 727.85 443.04 730.52 443.08 733.02 C 443.11 735.54 442.88 738.02 442.24 740.45 C 441.62 742.87 440.65 745.31 439.30 747.61 C 437.95 749.90 436.44 752.15 434.16 754.20 C 431.86 756.25 428.24 757.94 425.56 759.88 C 422.88 761.83 420.29 763.79 418.09 765.87 C 415.89 767.93 414.12 770.13 412.35 772.29 C 410.59 774.47 409.46 778.48 407.48 778.91 C 405.51 779.34 401.46 776.79 400.46 774.87 C 399.47 772.95 402.07 769.75 401.54 767.35 C 401.01 764.97 398.41 762.87 397.33 760.51 C 396.23 758.15 395.18 755.68 395.03 753.20 C 394.88 750.72 395.52 748.03 396.44 745.61 C 397.34 743.21 398.75 740.94 400.51 738.74 C 402.27 736.56 404.38 734.36 407.02 732.50 C 409.67 730.63 413.37 729.32 416.39 727.55 C 419.41 725.79 422.69 723.94 425.19 721.91 C 427.69 719.88 429.00 716.03 431.40 715.39 Z" />
    <path d="M 631.77 332.61 C 629.64 333.04 630.01 339.05 629.27 342.67 C 628.53 346.28 628.21 350.51 627.34 354.29 C 626.49 358.06 625.36 361.68 624.14 365.34 C 622.94 369.01 621.59 372.67 620.09 376.28 C 618.59 379.89 616.96 383.47 615.19 387.01 C 613.42 390.56 611.49 394.06 609.51 397.54 C 607.51 401.02 605.38 404.46 603.22 407.89 C 601.04 411.32 598.78 414.72 596.51 418.12 C 594.24 421.53 591.90 424.92 589.60 428.31 C 587.29 431.70 584.92 435.08 582.66 438.48 C 580.39 441.89 578.08 445.29 575.96 448.73 C 573.84 452.18 571.78 455.64 569.97 459.17 C 568.16 462.70 566.47 466.26 565.13 469.91 C 563.80 473.56 562.65 477.26 561.93 481.07 C 561.22 484.87 560.83 488.83 560.85 492.76 C 560.88 496.70 561.33 500.85 562.12 504.66 C 562.92 508.49 564.08 512.20 565.63 515.70 C 567.17 519.20 568.99 522.14 571.42 525.66 C 573.85 529.18 577.31 534.75 580.21 536.82 C 583.10 538.87 586.72 539.68 588.77 538.01 C 590.81 536.33 590.97 530.41 592.47 526.76 C 593.98 523.12 595.64 519.55 597.82 516.13 C 599.99 512.71 602.70 509.51 605.50 506.27 C 608.31 503.02 611.45 499.84 614.62 496.67 C 617.80 493.49 621.20 490.36 624.51 487.20 C 627.83 484.06 631.24 480.92 634.52 477.76 C 637.79 474.60 641.07 471.44 644.12 468.25 C 647.16 465.05 650.12 461.85 652.79 458.58 C 655.46 455.30 657.95 452.01 660.15 448.61 C 662.36 445.22 664.34 441.76 666.03 438.18 C 667.71 434.61 669.12 430.90 670.24 427.13 C 671.35 423.38 672.19 419.50 672.71 415.63 C 673.23 411.77 673.47 407.82 673.38 403.94 C 673.30 400.05 672.92 396.13 672.22 392.31 C 671.50 388.49 670.47 384.70 669.15 381.01 C 667.83 377.33 666.14 373.74 664.28 370.22 C 662.41 366.70 660.25 363.26 657.96 359.89 C 655.68 356.51 653.19 353.25 650.53 349.95 C 647.89 346.64 645.16 342.92 642.04 340.03 C 638.91 337.14 633.90 332.16 631.77 332.61 Z" />
    <path d="M 448.95 187.25 C 447.29 187.55 449.17 191.85 450.30 195.02 C 451.42 198.19 454.03 202.59 455.70 206.28 C 457.38 209.96 458.93 213.54 460.37 217.14 C 461.80 220.75 463.05 224.27 464.30 227.89 C 465.56 231.50 466.75 235.15 467.87 238.83 C 469.00 242.52 470.08 246.25 471.07 249.99 C 472.06 253.73 473.01 257.51 473.86 261.29 C 474.71 265.08 475.48 268.89 476.18 272.71 C 476.88 276.52 477.50 280.36 478.06 284.21 C 478.60 288.06 479.08 291.92 479.49 295.80 C 479.89 299.68 480.23 303.56 480.52 307.47 C 480.79 311.37 480.99 315.29 481.14 319.22 C 481.28 323.14 481.37 327.09 481.39 331.04 C 481.42 334.99 481.38 338.95 481.30 342.93 C 481.22 346.91 481.06 350.90 480.91 354.88 C 480.74 358.87 480.54 362.87 480.38 366.86 C 480.22 370.85 480.03 374.84 479.93 378.82 C 479.83 382.80 479.73 386.78 479.75 390.73 C 479.77 394.68 479.84 398.62 480.04 402.54 C 480.26 406.46 480.54 410.35 481.01 414.22 C 481.49 418.08 482.07 421.92 482.86 425.72 C 483.65 429.52 484.59 433.29 485.73 437.01 C 486.86 440.73 488.17 444.40 489.67 448.02 C 491.18 451.63 492.87 455.21 494.76 458.69 C 496.66 462.19 498.77 465.65 501.04 468.97 C 503.30 472.30 505.65 475.32 508.41 478.65 C 511.15 481.98 514.13 485.77 517.51 488.98 C 520.88 492.20 525.67 496.86 528.64 497.95 C 531.61 499.04 534.16 497.92 535.33 495.52 C 536.49 493.12 535.45 487.59 535.62 483.55 C 535.81 479.49 535.87 475.18 536.41 471.24 C 536.96 467.30 537.98 463.64 538.90 459.92 C 539.82 456.20 540.89 452.56 541.94 448.91 C 542.99 445.26 544.13 441.64 545.23 438.01 C 546.35 434.37 547.52 430.75 548.62 427.07 C 549.74 423.39 550.86 419.70 551.93 415.96 C 553.00 412.22 554.04 408.45 555.01 404.65 C 555.97 400.85 556.90 397.02 557.72 393.18 C 558.56 389.33 559.31 385.46 559.96 381.59 C 560.60 377.72 561.16 373.83 561.58 369.95 C 561.99 366.06 562.31 362.17 562.45 358.29 C 562.60 354.42 562.62 350.54 562.45 346.68 C 562.28 342.82 561.96 338.98 561.46 335.16 C 560.96 331.34 560.29 327.53 559.45 323.76 C 558.63 319.98 557.63 316.23 556.49 312.51 C 555.35 308.79 554.05 305.09 552.62 301.44 C 551.17 297.78 549.58 294.15 547.87 290.56 C 546.15 286.99 544.29 283.43 542.30 279.92 C 540.32 276.42 538.20 272.95 535.96 269.54 C 533.73 266.13 531.37 262.76 528.89 259.44 C 526.42 256.11 523.82 252.84 521.12 249.59 C 518.42 246.35 515.62 243.14 512.69 239.96 C 509.76 236.76 506.72 233.61 503.59 230.45 C 500.44 227.30 497.19 224.15 493.83 221.03 C 490.48 217.90 487.02 214.76 483.47 211.68 C 479.92 208.58 476.42 205.56 472.55 202.49 C 468.69 199.41 464.19 195.76 460.27 193.22 C 456.32 190.68 450.61 186.95 448.95 187.25 Z" />
    <path d="M 107.94 105.79 C 106.92 106.40 109.74 109.45 112.75 112.06 C 115.75 114.66 121.82 118.33 125.98 121.39 C 130.14 124.45 133.93 127.37 137.71 130.41 C 141.49 133.44 145.08 136.51 148.66 139.60 C 152.24 142.67 155.72 145.78 159.16 148.89 C 162.62 152.01 166.02 155.13 169.35 158.29 C 172.67 161.44 175.96 164.60 179.15 167.79 C 182.35 170.98 185.50 174.18 188.55 177.41 C 191.62 180.63 194.60 183.88 197.51 187.14 C 200.42 190.41 203.25 193.69 206.03 197.00 C 208.80 200.29 211.50 203.61 214.16 206.94 C 216.81 210.27 219.40 213.62 221.95 216.98 C 224.49 220.35 226.99 223.72 229.43 227.10 C 231.89 230.48 234.29 233.88 236.66 237.28 C 239.05 240.68 241.39 244.09 243.70 247.51 C 246.02 250.93 248.29 254.35 250.56 257.78 C 252.84 261.21 255.07 264.64 257.32 268.07 C 259.56 271.51 261.79 274.94 264.04 278.38 C 266.30 281.81 268.55 285.23 270.85 288.66 C 273.13 292.08 275.44 295.50 277.79 298.90 C 280.15 302.31 282.54 305.71 284.99 309.09 C 287.44 312.48 289.94 315.85 292.53 319.20 C 295.11 322.55 297.74 325.89 300.48 329.21 C 303.22 332.52 306.04 335.82 308.97 339.09 C 311.89 342.36 314.90 345.61 318.00 348.83 C 321.11 352.04 324.31 355.24 327.60 358.39 C 330.88 361.55 334.27 364.68 337.74 367.75 C 341.21 370.84 344.72 373.87 348.43 376.90 C 352.13 379.92 355.87 382.89 359.97 385.92 C 364.08 388.94 368.55 392.25 373.08 395.06 C 377.62 397.88 384.87 402.62 387.15 402.78 C 389.44 402.95 387.59 399.00 386.84 396.07 C 386.10 393.16 384.00 388.93 382.68 385.27 C 381.34 381.62 380.13 377.88 378.89 374.17 C 377.65 370.45 376.46 366.67 375.22 362.95 C 373.96 359.23 372.70 355.50 371.37 351.81 C 370.03 348.12 368.67 344.45 367.22 340.82 C 365.78 337.17 364.29 333.55 362.71 329.94 C 361.15 326.34 359.51 322.76 357.79 319.20 C 356.07 315.64 354.28 312.09 352.41 308.57 C 350.54 305.04 348.59 301.53 346.57 298.04 C 344.56 294.55 342.45 291.07 340.29 287.62 C 338.12 284.17 335.88 280.73 333.55 277.31 C 331.23 273.90 328.84 270.50 326.39 267.11 C 323.93 263.73 321.39 260.36 318.79 257.01 C 316.18 253.67 313.51 250.33 310.77 247.02 C 308.03 243.70 305.20 240.41 302.33 237.12 C 299.44 233.85 296.50 230.59 293.47 227.35 C 290.45 224.11 287.37 220.89 284.21 217.69 C 281.05 214.50 277.84 211.32 274.55 208.17 C 271.25 205.02 267.90 201.89 264.47 198.78 C 261.03 195.68 257.54 192.60 253.93 189.53 C 250.33 186.47 246.65 183.43 242.86 180.40 C 239.05 177.37 235.17 174.36 231.14 171.37 C 227.12 168.37 222.98 165.38 218.74 162.42 C 214.48 159.46 210.10 156.50 205.68 153.62 C 201.25 150.74 196.73 147.88 192.20 145.12 C 187.67 142.37 183.07 139.66 178.49 137.07 C 173.92 134.48 169.38 132.01 164.76 129.60 C 160.16 127.19 155.72 124.98 150.83 122.63 C 145.94 120.27 140.76 117.84 135.44 115.46 C 130.12 113.09 123.51 110.02 118.92 108.40 C 114.34 106.79 108.98 105.19 107.94 105.79 Z" />
    <path d="M 205.59 64.23 C 204.49 64.82 208.46 68.22 211.51 70.96 C 214.55 73.70 219.98 77.58 223.85 80.67 C 227.73 83.77 231.20 86.54 234.75 89.53 C 238.30 92.51 241.75 95.53 245.17 98.60 C 248.57 101.67 251.93 104.79 255.20 107.92 C 258.48 111.04 261.68 114.21 264.81 117.37 C 267.94 120.53 271.00 123.71 273.98 126.91 C 276.98 130.09 279.89 133.31 282.75 136.52 C 285.62 139.74 288.41 142.98 291.14 146.23 C 293.88 149.47 296.56 152.74 299.18 156.02 C 301.82 159.30 304.38 162.59 306.91 165.89 C 309.43 169.21 311.91 172.52 314.33 175.87 C 316.75 179.21 319.12 182.55 321.44 185.92 C 323.77 189.29 326.03 192.67 328.26 196.06 C 330.48 199.45 332.65 202.86 334.77 206.28 C 336.89 209.70 338.95 213.14 340.97 216.58 C 342.98 220.03 344.95 223.49 346.87 226.97 C 348.78 230.44 350.65 233.92 352.45 237.42 C 354.26 240.92 356.02 244.43 357.73 247.95 C 359.45 251.48 361.09 255.02 362.70 258.56 C 364.32 262.11 365.87 265.67 367.39 269.24 C 368.88 272.81 370.36 276.39 371.77 279.98 C 373.20 283.58 374.58 287.17 375.94 290.79 C 377.29 294.40 378.62 298.01 379.91 301.64 C 381.21 305.27 382.46 308.90 383.72 312.54 C 384.96 316.18 386.19 319.83 387.41 323.48 C 388.62 327.14 389.81 330.79 391.00 334.46 C 392.20 338.12 393.37 341.79 394.56 345.47 C 395.74 349.14 396.91 352.81 398.10 356.49 C 399.30 360.16 400.46 363.85 401.70 367.51 C 402.94 371.18 404.19 374.85 405.56 378.47 C 406.93 382.08 408.34 385.70 409.91 389.23 C 411.49 392.78 413.15 396.29 415.03 399.71 C 416.89 403.15 418.89 406.50 421.13 409.81 C 423.37 413.12 425.79 416.31 428.47 419.60 C 431.16 422.88 433.97 426.10 437.29 429.52 C 440.61 432.94 444.63 437.25 448.40 440.13 C 452.17 443.01 458.06 447.04 459.89 446.81 C 461.70 446.58 459.70 441.91 459.27 438.77 C 458.83 435.63 457.79 431.64 457.27 427.98 C 456.74 424.31 456.38 420.58 456.08 416.81 C 455.78 413.03 455.63 409.20 455.51 405.34 C 455.39 401.48 455.38 397.57 455.36 393.64 C 455.35 389.73 455.42 385.76 455.45 381.81 C 455.49 377.85 455.55 373.86 455.57 369.89 C 455.58 365.93 455.61 361.95 455.54 357.99 C 455.46 354.03 455.36 350.07 455.15 346.15 C 454.92 342.24 454.62 338.34 454.22 334.48 C 453.83 330.61 453.33 326.77 452.73 322.95 C 452.14 319.14 451.45 315.35 450.67 311.59 C 449.90 307.83 449.02 304.10 448.06 300.38 C 447.10 296.67 446.05 292.98 444.92 289.31 C 443.77 285.65 442.54 282.01 441.23 278.39 C 439.92 274.77 438.53 271.18 437.05 267.61 C 435.56 264.03 434.01 260.47 432.36 256.95 C 430.71 253.41 428.99 249.90 427.18 246.41 C 425.37 242.91 423.49 239.44 421.52 235.99 C 419.55 232.53 417.51 229.09 415.38 225.68 C 413.26 222.27 411.06 218.88 408.76 215.50 C 406.48 212.13 404.11 208.77 401.65 205.44 C 399.20 202.10 396.67 198.79 394.06 195.50 C 391.44 192.21 388.74 188.94 385.96 185.69 C 383.18 182.44 380.32 179.21 377.36 176.01 C 374.42 172.80 371.38 169.62 368.26 166.46 C 365.14 163.29 361.94 160.15 358.66 157.03 C 355.37 153.91 352.01 150.82 348.54 147.74 C 345.08 144.66 341.55 141.61 337.91 138.58 C 334.28 135.57 330.56 132.57 326.74 129.60 C 322.92 126.63 319.01 123.69 315.01 120.79 C 311.00 117.90 306.89 115.03 302.68 112.21 C 298.47 109.38 294.16 106.59 289.75 103.85 C 285.33 101.12 280.80 98.40 276.19 95.77 C 271.59 93.13 266.85 90.53 262.17 88.02 C 257.48 85.51 252.74 83.06 248.09 80.72 C 243.41 78.39 239.15 76.22 234.15 73.99 C 229.16 71.77 222.87 69.03 218.10 67.41 C 213.34 65.77 206.68 63.63 205.59 64.23 Z" />
  </g>
</svg>